# xmcd
#
# Track frame offsets:
#	150
#	22552
#	35330
#	57897
#	75382
#	98297
#	114871
#	137010
#	158465
#	176008
#
# Disc length: 2671 seconds
# Revision: 0
# Processed by: cddbd v1.5.2PL0 Copyright (c) Steve Scherf et al.
# Submitted via: dBpowerAMP V12.0
#
DISCID=5b0a6d0a
DTITLE=Terry and Judy - Perpetual State of Change
DYEAR=2000
DGENRE=Cruise Ship
TTITLE0=Pride and Joy
TTITLE1=Kentucky Moonshine
TTITLE2=Rainy Weather
TTITLE3=Crazy Mama
TTITLE4=Oh Boy!
TTITLE5=The Real Thing
TTITLE6=Help Me Momma
TTITLE7=Angel from Montgomery
TTITLE8=Bloodshot Eyes
TTITLE9=Magnolia
EXTD=
EXTT0=
EXTT1=
EXTT2=
EXTT3=
EXTT4=
EXTT5=
EXTT6=
EXTT7=
EXTT8=
EXTT9=
PLAYORDER=
